<svg xmlns="http://www.w3.org/2000/svg" width="1200" height="630" viewBox="0 0 1200 630" fill="none">
  <rect width="1200" height="630" fill="#0a0a0a"/>
  <!-- Dither field -->
  <g fill="#c8ff3d">
    <rect x="72" y="72" width="18" height="18"/>
    <rect x="108" y="72" width="18" height="18"/>
    <rect x="144" y="90" width="18" height="18"/>
    <rect x="90" y="108" width="18" height="18"/>
    <rect x="126" y="108" width="18" height="18"/>
    <rect x="162" y="126" width="18" height="18"/>
    <rect x="72" y="144" width="18" height="18"/>
    <rect x="108" y="144" width="18" height="18"/>
    <rect x="144" y="162" width="18" height="18"/>
    <rect x="180" y="144" width="18" height="18"/>
    <rect x="198" y="180" width="18" height="18"/>
    <rect x="90" y="180" width="18" height="18"/>
    <rect x="126" y="198" width="18" height="18"/>
    <rect x="162" y="198" width="18" height="18"/>
  </g>
  <g fill="#2a2a28">
    <rect x="980" y="420" width="14" height="14"/>
    <rect x="1008" y="420" width="14" height="14"/>
    <rect x="1036" y="434" width="14" height="14"/>
    <rect x="994" y="448" width="14" height="14"/>
    <rect x="1022" y="448" width="14" height="14"/>
    <rect x="1050" y="462" width="14" height="14"/>
    <rect x="980" y="476" width="14" height="14"/>
    <rect x="1008" y="476" width="14" height="14"/>
    <rect x="1036" y="490" width="14" height="14"/>
    <rect x="1064" y="476" width="14" height="14"/>
    <rect x="1078" y="504" width="14" height="14"/>
    <rect x="994" y="504" width="14" height="14"/>
    <rect x="1022" y="518" width="14" height="14"/>
    <rect x="1050" y="518" width="14" height="14"/>
  </g>
  <text x="72" y="320" fill="#f5f5f0" font-family="ui-sans-serif, system-ui, sans-serif" font-size="72" font-weight="600" letter-spacing="-1.5">Open Dither</text>
  <text x="72" y="380" fill="#6b6b63" font-family="ui-sans-serif, system-ui, sans-serif" font-size="28">Free image &amp; video dithering in your browser</text>
  <text x="72" y="540" fill="#c8ff3d" font-family="ui-monospace, monospace" font-size="22">opendither.site</text>
  <text x="72" y="575" fill="#6b6b63" font-family="ui-monospace, monospace" font-size="18">open source Ę private Ę no upload</text>
</svg>
